#!OML:ASF E:\motion texture\Top Level 1\Subject 1\Session 1\male.ASF
:FULLY-SPECIFIED
:DEGREES
302
root 7.92918 17.9043 2.70914 152.465 -80.1673 -146.493
lowerback 0.0229261 0.11767 2.91258
upperback -3.55217 0.183545 0.744572
thorax -3.66108 -0.0106815 -0.86885
lowerneck -15.2509 -10.3116 -11.0491
upperneck 11.0078 -12.8219 8.22256
head 7.09947 -6.01799 2.95154
rclavicle 4.58447e-015 -1.98785e-015
rhumerus 40.5249 -23.7166 -60.2717
rradius 94.235
rwrist 34.5941
rhand -24.6493 -69.965
rfingers 7.12502
rthumb 1.85027 -260.063
lclavicle 4.58447e-015 -1.98785e-015
lhumerus -22.28 -5.64587 78.2598
lradius 51.1008
lwrist -1.48224
lhand -16.1558 26.3967
lfingers 7.12502
lthumb 10.0498 56.1368
rfemur -22.2991 -5.09728 24.8287
rtibia 58.5671
rfoot 3.38175 -11.0548
rtoes 7.45121
lfemur -17.4864 -5.79971 -17.4409
ltibia 20.6649
lfoot -5.62375 -3.03705
ltoes 7.7435
303
root 7.8109 17.9174 2.69925 152.224 -80.4403 -146.221
lowerback 0.00658284 0.140048 2.74494
upperback -3.52815 0.20926 0.706985
thorax -3.62579 0.00799963 -0.814638
lowerneck -14.9281 -10.485 -11.3043
upperneck 10.7112 -13.0486 8.40942
head 7.00217 -6.13329 3.03523
rclavicle -1.49337e-014 6.75868e-015
rhumerus 39.2187 -22.2985 -60.3793
rradius 92.1242
rwrist 34.0126
rhand -22.0381 -66.8254
rfingers 7.12502
rthumb 4.37194 -263.24
lclavicle -1.49337e-014 6.75868e-015
lhumerus -22.0785 -5.62309 78.4627
lradius 50.7921
lwrist -1.85443
lhand -16.1011 25.912
lfingers 7.12502
lthumb 10.1026 55.6494
rfemur -23.1448 -5.09737 24.7081
rtibia 58.1584
rfoot 2.95165 -11.3312
rtoes 7.72211
lfemur -16.8378 -5.82137 -17.6599
ltibia 20.2134
lfoot -5.80044 -3.21097
ltoes 7.84835
304
root 7.69293 17.9296 2.68882 151.924 -80.7223 -145.882
lowerback -0.0148743 0.157419 2.5749
upperback -3.50395 0.228202 0.673471
thorax -3.58784 0.0233563 -0.754613
lowerneck -14.6051 -10.6566 -11.5559
upperneck 10.406 -13.274 8.59554
head 6.90289 -6.24817 3.11864
rclavicle -1.20265e-014 3.18055e-015
rhumerus 37.8825 -20.9079 -60.5367
rradius 90.1111
rwrist 33.3867
rhand -19.4998 -63.5509
rfingers 7.12502
rthumb 6.82267 -266.579
lclavicle -1.20265e-014 3.18055e-015
lhumerus -21.8884 -5.59583 78.6632
lradius 50.4987
lwrist -2.24734
lhand -16.0497 25.4209
lfingers 7.12502
lthumb 10.1522 55.1559
rfemur -23.9645 -5.08752 24.5892
rtibia 57.6329
rfoot 2.49799 -11.5936
rtoes 7.93957
lfemur -16.2026 -5.8475 -17.87
ltibia 19.7655
lfoot -5.9755 -3.39213
ltoes 7.946
305
root 7.57518 17.9408 2.6778 151.551 -81.0162 -145.461
lowerback -0.0406615 0.169062 2.40217
upperback -3.48001 0.239448 0.642947
thorax -3.54809 0.0348999 -0.689717
lowerneck -14.2833 -10.8258 -11.8039
upperneck 10.0925 -13.4978 8.78473
head 6.80226 -6.36216 3.20294
rclavicle 6.24929e-015 -5.96354e-015
rhumerus 36.5096 -19.5481 -60.7454
rradius 88.2135
rwrist 32.7381
rhand -17.1002 -60.2802
rfingers 7.12502
rthumb 9.13868 -269.938
lclavicle 6.24929e-015 -5.96354e-015
lhumerus -21.7128 -5.56398 78.8599
lradius 50.2212
lwrist -2.65616
lhand -16 24.9261
lfingers 7.12502
lthumb 10.2001 54.6588
rfemur -24.7561 -5.07165 24.4706
rtibia 56.9919
rfoot 2.02753 -11.8421
rtoes 8.1089
lfemur -15.5826 -5.87968 -18.0721
ltibia 19.3253
lfoot -6.15009 -3.58199
ltoes 8.03789
306
root 7.45746 17.9511 2.66615 151.091 -81.3187 -144.946
lowerback -0.0696797 0.176033 2.22712
upperback -3.4557 0.244528 0.616929
thorax -3.50644 0.0434091 -0.618654
lowerneck -13.9595 -10.9936 -12.0518
upperneck 9.76784 -13.721 8.97957
head 6.69938 -6.47589 3.28954
rclavicle -1.43373e-014 -9.14409e-015
rhumerus 35.0943 -18.2203 -61.0019
rradius 86.4423
rwrist 32.0829
rhand -14.9177 -57.117
rfingers 7.12502
rthumb 11.2442 -446.796
lclavicle -1.43373e-014 -9.14409e-015
lhumerus -21.552 -5.52597 79.0537
lradius 49.9581
lwrist -3.07868
lhand -15.956 24.4326
lfingers 7.12502
lthumb 10.2426 54.1632
rfemur -25.5168 -5.04756 24.3534
rtibia 56.2383
rfoot 1.551 -12.0713
rtoes 8.21185
lfemur -14.9763 -5.91709 -18.2636
ltibia 18.8932
lfoot -6.32486 -3.77935
ltoes 8.12371
307
root 7.33968 17.9604 2.65385 150.545 -81.6291 -144.336
lowerback -0.102855 0.17906 2.04887
upperback -3.43096 0.244376 0.594676
thorax -3.46223 0.0493648 -0.541738
lowerneck -13.6393 -11.1602 -12.2956
upperneck 9.43634 -13.9436 9.1754
head 6.59595 -6.58933 3.37601
rclavicle -2.13072e-015 5.56597e-015
rhumerus 33.6327 -16.9256 -61.3076
rradius 84.804
rwrist 31.4364
rhand -12.9855 -54.1347
rfingers 7.12502
rthumb 13.1072 -443.703
lclavicle -2.13072e-015 5.56597e-015
lhumerus -21.4074 -5.48135 79.2436
lradius 49.7096
lwrist -3.51087
lhand -15.9179 23.9421
lfingers 7.12502
lthumb 10.2794 53.6709
rfemur -26.2472 -5.01539 24.2359
rtibia 55.3758
rfoot 1.07137 -12.2786
rtoes 8.25673
lfemur -14.3859 -5.95857 -18.4458
ltibia 18.4727
lfoot -6.50153 -3.98476
ltoes 8.20542
